<?xml version="1.0" encoding="UTF-8" standalone="no"?>
<!-- Created with Inkscape (http://www.inkscape.org/) -->

<svg
   version="1.1"
   id="svg1"
   width="450.4429"
   height="570.59961"
   viewBox="0 0 450.4429 570.59961"
   sodipodi:docname="kitune.svg"
   inkscape:export-filename="fox.svg"
   inkscape:export-xdpi="209.93611"
   inkscape:export-ydpi="209.93611"
   xml:space="preserve"
   inkscape:version="1.3.2 (091e20e, 2023-11-25, custom)"
   xmlns:inkscape="http://www.inkscape.org/namespaces/inkscape"
   xmlns:sodipodi="http://sodipodi.sourceforge.net/DTD/sodipodi-0.dtd"
   xmlns="http://www.w3.org/2000/svg"
   xmlns:svg="http://www.w3.org/2000/svg"><defs
     id="defs1" /><sodipodi:namedview
     id="namedview1"
     pagecolor="#505050"
     bordercolor="#eeeeee"
     borderopacity="1"
     inkscape:showpageshadow="0"
     inkscape:pageopacity="0"
     inkscape:pagecheckerboard="0"
     inkscape:deskcolor="#505050"
     inkscape:zoom="1.4142136"
     inkscape:rotation="-1"
     inkscape:cx="491.3506"
     inkscape:cy="272.72117"
     inkscape:window-width="2560"
     inkscape:window-height="1017"
     inkscape:window-x="1912"
     inkscape:window-y="-8"
     inkscape:window-maximized="1"
     inkscape:current-layer="svg1"
     showguides="true"
     inkscape:export-bgcolor="#00000000" /><path
     id="path27"
     style="display:inline;opacity:1;mix-blend-mode:normal;fill:#ffffff;fill-opacity:1;fill-rule:evenodd;stroke:none;stroke-width:1.7;stroke-linecap:round;stroke-linejoin:round;stroke-opacity:1"
     inkscape:label="tail"
     d="M 149.2224,-3.0390884e-8 C 147.69288,-3.0390884e-8 133.05511,40.988861 134.73998,70.433594 c 0.41749,7.295757 -2.98929,16.559665 -133.0273506,76.318366 -6.4908499,2.98285 6.719521,35.56756 18.6699216,39.31445 C 56.793028,197.48242 95.266473,204.19344 132.70287,212 114.17181,283.988 86.284831,264.34038 36.443098,342.9961 40.67264,361.43695 54.543321,389.31178 65.405989,392.78907 100.68298,330.58115 148.11336,282.71541 147.15404,205.82617 129.3307,203.3238 23.33751,181.75757 20.405989,178.84961 14.850382,173.33867 5.5488194,161.51099 13.95677,162.63672 c 25.86518,3.46305 110.79901,-0.19607 152.8418,-3.09765 39.63459,-2.73538 68.38746,24.99251 83.25782,62.77734 5.8284,14.80969 7.89473,27.55737 9.5332,31.42383 -4.70869,-2.07444 -10.38229,-4.00048 -15.94922,-4.33203 9.33776,22.11225 18.20971,45.79685 22.54102,71.82226 -5.72288,-4.1388 -12.36911,-6.03352 -18.40235,-7.32422 4.33282,13.81312 9.58637,34.64512 6.72071,46.69336 22.40738,-5.24269 40.59978,-8.08611 66.1914,-10.58008 C 349.31273,258.39909 323.07607,118.63036 221.9099,62.765625 176.55422,37.719871 152.68667,-3.0390884e-8 149.2224,-3.0390884e-8 Z M 148.54467,10.064453 c 0,0 -0.14888,43.867358 9.62695,64.958985 -5.99117,-4.539485 -9.89711,-6.989946 -12.35937,-7.921875 -0.41795,1.408848 -2.36999,5.034618 -4.79297,6.720703 -4.71791,-16.342643 7.52539,-63.757813 7.52539,-63.757813 z m 13.28906,111.552737 -28.0625,16.12891 -31.55078,4.2207 -11.970711,6.0957 7.423827,-14.75586 36.923834,-2.97461 z M 27.808332,356.13477 C 11.38034,381.93771 4.0491234,424.98804 6.2673174,457.9961 c 2.325483,34.60459 23.0293106,96.92133 147.6796926,97.13086 17.45495,0.49134 34.16176,0.30845 42.86328,0.66406 -2.20042,-3.384 -5.04593,-13.6808 -5.53906,-17.2168 33.77121,10.02896 196.39233,-37.01913 213.67383,32.02539 34.1667,-29.47891 113.5313,-230.19371 -79.11133,-208.24804 0.0154,-0.043 0.0295,-0.0917 0.0449,-0.13477 -7.09441,0.69137 -14.16144,1.57607 -21.1582,2.49609 -45.89564,6.03493 -90.78476,17.6564 -135.31445,30.03711 -27.31114,7.59338 -56.8079,17.49997 -85.484386,16.24414 -5.85324,-0.25633 -11.810399,-1.34386 -17.373047,-3.18164 -23.798524,-7.86252 -32.589971,-29.45407 -38.740215,-51.67773 z m 317.195318,17.3125 c 42.01107,0.21059 64.37905,12.54562 80.84766,40.33203 16.51677,27.86767 1.86448,79.52371 -19.85742,120 -30.61502,-21.46306 -88.70206,-19.60236 -102.50391,-13.90039 7.01658,-16.57333 27.53663,-35.64518 66.35156,-41.13477 -23.24997,-10.24999 -84.90622,-21.49226 -125.8789,-21.78515 26.14731,-36.25607 98.58009,-40.00781 116.83007,-38.75782 -15.62855,-19.90263 -33.11551,-31.42674 -64.85546,-41.04492 18.87786,-2.50087 35.06271,-3.77918 49.0664,-3.70898 z" /></svg>
